HIERARCHY
ROOT Hips
{
	OFFSET 0.000000 0.000000 0.000000
	CHANNELS 6 Xposition Yposition Zposition Xrotation Yrotation Zrotation
	JOINT LeftUpLeg_virtual
	{
		OFFSET 0.000000 0.000000 0.000000
		CHANNELS 3 Xrotation Yrotation Zrotation
		JOINT LeftUpLeg
		{
			OFFSET 10.205400 -3.823500 0.155100
			CHANNELS 3 Xrotation Yrotation Zrotation
			JOINT LeftLeg
			{
				OFFSET 0.708757 -12.982077 0.567790
				CHANNELS 3 Xrotation Yrotation Zrotation
				JOINT LeftFoot
				{
					OFFSET -0.708756 -10.717838 -2.184338
					CHANNELS 3 Xrotation Yrotation Zrotation
					JOINT LeftToeBase
					{
						OFFSET 0.108149 -7.191104 7.560241
						CHANNELS 3 Xrotation Yrotation Zrotation
						JOINT LeftToe_End
						{
							OFFSET 0.070230 0.081724 4.490308
							CHANNELS 3 Xrotation Yrotation Zrotation
							End Site
							{
								OFFSET 0 0 0
							}
						}
					}
				}
			}
		}
	}
	JOINT RightUpLeg_virtual
	{
		OFFSET 0.000000 0.000000 0.000000
		CHANNELS 3 Xrotation Yrotation Zrotation
		JOINT RightUpLeg
		{
			OFFSET -10.205400 -3.823500 0.005500
			CHANNELS 3 Xrotation Yrotation Zrotation
			JOINT RightLeg
			{
				OFFSET -0.708756 -12.982134 0.610632
				CHANNELS 3 Xrotation Yrotation Zrotation
				JOINT RightFoot
				{
					OFFSET 0.708754 -10.717769 -1.945823
					CHANNELS 3 Xrotation Yrotation Zrotation
					JOINT RightToeBase
					{
						OFFSET -0.108140 -7.191069 7.372968
						CHANNELS 3 Xrotation Yrotation Zrotation
						JOINT RightToe_End
						{
							OFFSET -0.070227 0.081735 4.479403
							CHANNELS 3 Xrotation Yrotation Zrotation
							End Site
							{
								OFFSET 0 0 0
							}
						}
					}
				}
			}
		}
	}
	JOINT Spine_virtual
	{
		OFFSET 0.000000 0.000000 0.000000
		CHANNELS 3 Xrotation Yrotation Zrotation
		JOINT Spine
		{
			OFFSET 0.000000 6.876099 0.125700
			CHANNELS 3 Xrotation Yrotation Zrotation
			JOINT Spine1
			{
				OFFSET 0.000000 5.730043 0.104720
				CHANNELS 3 Xrotation Yrotation Zrotation
				JOINT Spine1_split
				{
					OFFSET 0.000000 5.730043 0.104720
					CHANNELS 3 Xrotation Yrotation Zrotation
					JOINT Spine2
					{
						OFFSET 0.000000 5.730043 0.104720
						CHANNELS 3 Xrotation Yrotation Zrotation
						JOINT Neck_virtual
						{
							OFFSET 0.000000 0.000000 0.000000
							CHANNELS 3 Xrotation Yrotation Zrotation
							JOINT Neck
							{
								OFFSET 0.000000 10.314075 0.188496
								CHANNELS 3 Xrotation Yrotation Zrotation
								JOINT Head
								{
									OFFSET 0.000000 7.643700 -2.377400
									CHANNELS 3 Xrotation Yrotation Zrotation
									JOINT HeadTop_End
									{
										OFFSET 0.000000 43.788605 -13.619600
										CHANNELS 3 Xrotation Yrotation Zrotation
										End Site
										{
											OFFSET 0 0 0
										}
									}
								}
							}
						}
						JOINT LeftShoulder_virtual
						{
							OFFSET 0.000000 0.000000 0.000000
							CHANNELS 3 Xrotation Yrotation Zrotation
							JOINT LeftShoulder
							{
								OFFSET 2.196100 4.412489 0.087492
								CHANNELS 3 Xrotation Yrotation Zrotation
								JOINT LeftShoulder_split
								{
									OFFSET 2.196100 4.412489 0.087492
									CHANNELS 3 Xrotation Yrotation Zrotation
									JOINT LeftArm
									{
										OFFSET 8.771219 -2.981674 -0.026999
										CHANNELS 3 Xrotation Yrotation Zrotation
										JOINT LeftForeArm
										{
											OFFSET 8.512804 0.000000 -0.000000
											CHANNELS 3 Xrotation Yrotation Zrotation
											JOINT LeftHand
											{
												OFFSET 18.484802 0.000000 -0.000000
												CHANNELS 3 Xrotation Yrotation Zrotation
												End Site
												{
													OFFSET 0 0 0
												}
											}
										}
									}
								}
							}
						}
						JOINT RightShoulder_virtual
						{
							OFFSET 0.000000 0.000000 0.000000
							CHANNELS 3 Xrotation Yrotation Zrotation
							JOINT RightShoulder
							{
								OFFSET -2.196100 4.412496 0.070690
								CHANNELS 3 Xrotation Yrotation Zrotation
								JOINT RightShoulder_split
								{
									OFFSET -2.196100 4.412496 0.070690
									CHANNELS 3 Xrotation Yrotation Zrotation
									JOINT RightArm
									{
										OFFSET -8.771282 -2.981682 -0.094208
										CHANNELS 3 Xrotation Yrotation Zrotation
										JOINT RightForeArm
										{
											OFFSET -8.494598 0.000000 0.000000
											CHANNELS 3 Xrotation Yrotation Zrotation
											JOINT RightHand
											{
												OFFSET -18.483803 0.000000 0.000001
												CHANNELS 3 Xrotation Yrotation Zrotation
												End Site
												{
													OFFSET 0 0 0
												}
											}
										}
									}
								}
							}
						}
					}
				}
			}
		}
	}
}
MOTION
Frames: 6
Frame Time: 0.03333333
1.901125 6.210361 -5.168221 0.000000 0.000000 0.000000 82.953815 3.481511 -2.325046 -4.167439 8.307165 19.469758 32.305214 20.188922 2.027432 25.814358 28.616175 -16.667034 4.526068 3.580805 14.536155 0.000000 0.000000 0.000000 84.270894 -1.729201 -0.472849 -2.947316 -6.233526 -19.088454 3.955513 -6.054963 2.089813 39.058952 -18.857133 25.429254 17.107937 -3.855634 -13.382099 0.000000 0.000000 0.000000 88.187728 0.138303 -0.629079 2.977750 0.247238 -1.720323 1.227320 0.461341 -0.001772 0.420115 -1.274484 0.612552 0.000000 0.000000 0.000000 0.132834 0.310305 -0.301291 -4.078130 -12.348529 5.583147 -19.299546 -56.181817 -20.084175 0.000000 0.000000 0.000000 0.869060 0.271325 -0.372493 3.508505 -17.797272 -2.885673 -1.212826 -0.830838 -1.555297 23.060416 -20.273666 -56.479162 0.345733 -25.192164 -0.972352 0.000000 0.000000 0.000000 0.653432 0.640101 0.068969 -0.316714 12.245781 11.643063 6.564550 5.586800 -2.462459 7.237493 -9.014961 55.436045 0.560795 28.846088 1.150224 0.000000 0.000000 0.000000 
1.900651 6.209719 -5.171196 0.000000 0.000000 0.000000 82.953488 3.482317 -2.324803 -4.169249 8.305321 19.466534 32.313229 20.188449 2.020526 25.818996 28.625161 -16.654001 4.519761 3.581382 14.535640 0.000000 0.000000 0.000000 84.266141 -1.725245 -0.477237 -2.951424 -6.230956 -19.091514 3.966460 -6.051932 2.084645 39.053721 -18.844897 25.445513 17.104325 -3.852603 -13.389870 0.000000 0.000000 0.000000 88.184661 0.138035 -0.622494 2.976525 0.247286 -1.716702 1.228804 0.459720 0.000347 0.408103 -1.273488 0.608319 0.000000 0.000000 0.000000 0.136055 0.310844 -0.301565 -4.081554 -12.338770 5.577490 -19.298119 -56.169181 -20.087562 0.000000 0.000000 0.000000 0.877047 0.269587 -0.370966 3.513408 -17.816393 -2.871484 -1.216547 -0.805663 -1.558738 23.066975 -20.271986 -56.478025 0.348631 -25.161087 -0.965791 0.000000 0.000000 0.000000 0.655137 0.639042 0.071276 -0.317894 12.244291 11.634525 6.573770 5.611869 -2.468328 7.218977 -8.993902 55.423515 0.575892 28.879136 1.140542 0.000000 0.000000 0.000000 
1.899580 6.209532 -5.175369 0.000000 0.000000 0.000000 82.951001 3.486183 -2.331326 -4.183856 8.311186 19.473409 32.330000 20.186158 2.015835 25.840298 28.626390 -16.650731 4.508313 3.581094 14.533427 0.000000 0.000000 0.000000 84.260321 -1.724645 -0.482426 -2.942765 -6.220283 -19.088610 3.968864 -6.054646 2.073538 39.048936 -18.831188 25.467472 17.130429 -3.850205 -13.372092 0.000000 0.000000 0.000000 88.182995 0.135629 -0.614457 2.975829 0.249675 -1.708005 1.233205 0.457886 0.002477 0.399580 -1.277182 0.606514 0.000000 0.000000 0.000000 0.139244 0.309618 -0.299918 -4.084655 -12.322137 5.566927 -19.276337 -56.164523 -20.088561 0.000000 0.000000 0.000000 0.886323 0.267251 -0.371601 3.518606 -17.857630 -2.864607 -1.224575 -0.793213 -1.563348 23.088905 -20.274414 -56.460891 0.332700 -25.110224 -0.973050 0.000000 0.000000 0.000000 0.660580 0.637542 0.072630 -0.317785 12.246867 11.626328 6.593037 5.639129 -2.478749 7.189420 -9.003948 55.423621 0.602034 28.893292 1.127543 0.000000 0.000000 0.000000 
1.897994 6.209675 -5.179379 0.000000 0.000000 0.000000 82.948502 3.492724 -2.345034 -4.213473 8.326078 19.491774 32.352776 20.182343 2.011194 25.874223 28.619191 -16.658212 4.495186 3.580071 14.530869 0.000000 0.000000 0.000000 84.255472 -1.723362 -0.492353 -2.927382 -6.200379 -19.082328 3.968972 -6.061196 2.058053 39.046047 -18.817535 25.496816 17.182048 -3.847729 -13.334547 0.000000 0.000000 0.000000 88.182715 0.129988 -0.607925 2.977235 0.253944 -1.695621 1.239595 0.456675 0.004090 0.402497 -1.292654 0.612945 0.000000 0.000000 0.000000 0.141324 0.307307 -0.297295 -4.086772 -12.302968 5.556173 -19.240368 -56.167705 -20.087556 0.000000 0.000000 0.000000 0.894744 0.264847 -0.374449 3.524518 -17.919486 -2.861719 -1.230463 -0.789633 -1.574618 23.124539 -20.269153 -56.426320 0.304843 -25.071948 -0.991196 0.000000 0.000000 0.000000 0.668047 0.636539 0.072751 -0.317564 12.250817 11.621963 6.619461 5.667604 -2.487970 7.150745 -9.054567 55.431052 0.633669 28.875694 1.112271 0.000000 0.000000 0.000000 
1.896104 6.210138 -5.183027 0.000000 0.000000 0.000000 82.945790 3.503322 -2.365758 -4.255656 8.346688 19.518060 32.380878 20.179731 2.005005 25.910452 28.609132 -16.672429 4.481191 3.578483 14.528938 0.000000 0.000000 0.000000 84.253115 -1.717159 -0.508728 -2.914673 -6.174031 -19.077748 3.973898 -6.065767 2.041297 39.047840 -18.797604 25.541692 17.238921 -3.842466 -13.286971 0.000000 0.000000 0.000000 88.185378 0.124089 -0.605712 2.981670 0.259406 -1.680865 1.247293 0.456423 0.004015 0.411614 -1.312418 0.618050 0.000000 0.000000 0.000000 0.141459 0.304414 -0.294836 -4.088858 -12.284802 5.548550 -19.202261 -56.176574 -20.088035 0.000000 0.000000 0.000000 0.900545 0.262584 -0.378288 3.531749 -17.998918 -2.857125 -1.225136 -0.781363 -1.585998 23.164505 -20.256485 -56.377942 0.276496 -25.057348 -1.012798 0.000000 0.000000 0.000000 0.676102 0.635718 0.070268 -0.316273 12.251124 11.621082 6.638917 5.684927 -2.503250 7.109086 -9.137384 55.434772 0.665775 28.837810 1.096725 0.000000 0.000000 0.000000 
1.893606 6.210741 -5.187378 0.000000 0.000000 0.000000 82.945940 3.520878 -2.392936 -4.305192 8.368733 19.547158 32.411184 20.181568 1.996473 25.933957 28.602682 -16.687604 4.464259 3.576364 14.528652 0.000000 0.000000 0.000000 84.254106 -1.704661 -0.529542 -2.912465 -6.145619 -19.078339 3.989961 -6.063762 2.025147 39.056845 -18.768154 25.604778 17.282679 -3.832254 -13.239001 0.000000 0.000000 0.000000 88.190624 0.124461 -0.611657 2.989210 0.264671 -1.665483 1.254469 0.456485 0.001376 0.420655 -1.333901 0.620428 0.000000 0.000000 0.000000 0.139617 0.301021 -0.293631 -4.093301 -12.272302 5.545561 -19.165676 -56.192175 -20.088582 0.000000 0.000000 0.000000 0.903083 0.261198 -0.381910 3.540892 -18.092324 -2.848272 -1.205144 -0.764662 -1.595143 23.204514 -20.246472 -56.316928 0.258526 -25.068263 -1.028879 0.000000 0.000000 0.000000 0.684262 0.634625 0.065066 -0.312539 12.245727 11.624868 6.658599 5.686889 -2.523961 7.065817 -9.238613 55.425882 0.693737 28.793421 1.082685 0.000000 0.000000 0.000000 
